<svg width="512" height="512" version="1.1" xmlns="http://www.w3.org/2000/svg" desc="Created with ImageTracer.java version 1.1.2" ><path desc="l 0 p 0" fill="rgb(1,1,1)" stroke="rgb(1,1,1)" stroke-width="1" opacity="0.9882352941176471" d="M 0.5 0.0 L 512.0 0.5 L 511.5 512.0 L 0.0 511.5 L 0.5 0.0 Z" /><path desc="l 1 p 0" fill="rgb(254,254,254)" stroke="rgb(254,254,254)" stroke-width="1" opacity="1.0" d="M 332.5 205.0 L 483.0 205.5 L 463.5 245.0 L 462.5 225.0 L 451.0 225.5 L 450.5 229.0 Q 445.0 222.5 432.5 223.0 L 427.0 224.5 Q 418.5 227.0 414.0 233.5 Q 408.0 240.5 407.0 252.5 L 406.0 267.5 L 407.5 276.0 Q 409.8 290.2 419.5 297.0 Q 425.2 301.8 436.0 301.5 Q 436.6 306.1 434.0 307.5 L 429.0 318.5 L 407.5 362.0 L 378.0 299.5 L 386.5 299.0 Q 396.6 299.1 400.0 292.5 L 402.0 284.5 L 402.0 272.5 L 395.5 264.0 L 391.5 263.0 L 388.0 261.5 Q 394.8 260.3 398.0 255.5 Q 402.2 249.7 401.0 238.5 L 399.5 234.0 L 395.5 228.0 Q 387.3 223.3 372.5 225.0 L 350.5 225.0 L 344.5 225.0 L 341.0 223.5 L 332.5 205.0 Z" /><path desc="l 0 p 1" fill="rgb(1,1,1)" stroke="rgb(1,1,1)" stroke-width="1" opacity="0.9882352941176471" d="M 343.5 211.0 L 473.0 211.5 L 468.5 219.0 L 451.5 219.0 L 443.5 218.0 L 438.5 217.0 L 427.5 217.0 Q 414.7 220.7 408.0 230.5 L 406.5 233.0 Q 404.3 225.7 398.5 222.0 Q 392.3 217.2 379.5 219.0 L 346.0 218.5 L 343.5 211.0 Z" /><path desc="l 1 p 1" fill="rgb(254,254,254)" stroke="rgb(254,254,254)" stroke-width="1" opacity="1.0" d="M 28.5 219.0 L 330.0 219.5 L 329.5 225.0 L 28.0 224.5 L 28.5 219.0 Z" /><path desc="l 1 p 2" fill="rgb(254,254,254)" stroke="rgb(254,254,254)" stroke-width="1" opacity="1.0" d="M 29.5 229.0 L 66.5 229.0 Q 86.0 227.0 93.0 237.5 Q 97.0 244.0 95.0 256.5 L 88.5 265.0 L 81.0 267.5 L 74.5 268.0 L 60.0 268.5 Q 59.4 273.6 62.5 275.0 Q 68.5 273.5 70.0 276.5 L 70.0 285.5 Q 71.0 290.0 68.5 291.0 L 29.0 290.5 L 29.5 275.0 L 35.0 273.5 L 36.0 266.5 L 36.0 248.5 L 33.5 245.0 L 29.0 244.5 L 29.5 229.0 Z" /><path desc="l 1 p 3" fill="rgb(254,254,254)" stroke="rgb(254,254,254)" stroke-width="1" opacity="1.0" d="M 98.5 229.0 L 136.0 229.5 L 135.5 245.0 Q 131.0 244.0 130.0 246.5 L 129.0 255.5 L 130.0 260.5 L 129.0 263.5 L 130.0 267.5 L 130.5 274.0 L 136.0 275.5 L 135.5 291.0 L 98.0 290.5 L 98.5 275.0 Q 103.0 276.0 104.0 273.5 L 105.0 265.5 L 105.0 247.5 Q 103.5 244.0 98.0 244.5 L 98.5 229.0 Z" /><path desc="l 1 p 4" fill="rgb(254,254,254)" stroke="rgb(254,254,254)" stroke-width="1" opacity="1.0" d="M 141.5 229.0 L 198.0 229.5 L 198.0 239.5 Q 199.0 244.5 196.0 245.5 L 190.0 252.5 L 170.0 276.5 L 180.5 277.0 Q 183.5 276.5 183.0 272.5 L 184.5 266.0 L 198.0 266.5 L 197.5 291.0 L 140.0 290.5 L 140.0 280.5 Q 139.0 276.0 141.5 275.0 L 147.0 268.5 L 168.0 243.5 L 158.5 243.0 L 156.0 246.5 L 154.5 254.0 L 141.0 253.5 L 141.5 229.0 Z" /><path desc="l 1 p 5" fill="rgb(254,254,254)" stroke="rgb(254,254,254)" stroke-width="1" opacity="1.0" d="M 203.5 229.0 L 260.0 229.5 L 260.0 239.5 Q 261.0 244.5 258.0 245.5 L 252.0 252.5 L 232.0 276.5 L 242.5 277.0 L 245.0 273.5 L 246.5 266.0 L 260.0 266.5 L 259.5 291.0 L 202.0 290.5 L 202.0 280.5 Q 201.0 276.0 203.5 275.0 L 209.5 268.0 L 230.0 243.5 L 220.5 243.0 Q 217.5 243.5 218.0 247.5 L 216.5 254.0 L 203.0 253.5 L 203.5 229.0 Z" /><path desc="l 1 p 6" fill="rgb(254,254,254)" stroke="rgb(254,254,254)" stroke-width="1" opacity="1.0" d="M 275.5 229.0 L 305.5 229.0 L 313.5 229.0 Q 317.3 228.3 318.0 230.5 L 318.0 239.5 Q 319.0 244.0 316.5 245.0 L 313.0 246.5 L 319.0 262.5 Q 320.2 270.8 325.5 275.0 Q 329.3 274.3 330.0 276.5 L 330.0 285.5 Q 331.0 290.0 328.5 291.0 L 302.5 291.0 L 296.5 291.0 Q 292.8 291.8 292.0 289.5 L 292.5 275.0 Q 297.0 276.0 298.0 273.5 L 296.5 269.0 L 287.5 269.0 Q 283.8 268.3 283.0 270.5 Q 282.3 274.3 284.5 275.0 L 289.0 275.5 L 289.0 285.5 Q 290.0 290.0 287.5 291.0 L 263.0 290.5 L 263.5 275.0 Q 268.6 275.6 270.0 272.5 L 277.0 254.5 Q 279.8 251.8 279.0 245.5 L 275.0 243.5 L 275.5 229.0 Z" /><path desc="l 1 p 7" fill="rgb(254,254,254)" stroke="rgb(254,254,254)" stroke-width="1" opacity="1.0" d="M 439.5 240.0 Q 447.4 239.1 449.0 244.5 L 450.5 252.0 L 460.0 252.5 L 457.5 257.0 L 440.0 257.5 L 440.5 273.0 Q 444.5 272.5 445.0 275.5 Q 446.8 282.3 443.5 284.0 L 438.5 285.0 L 433.0 280.5 L 431.5 273.0 L 431.0 253.5 L 432.5 248.0 L 437.5 241.0 L 439.5 240.0 Z" /><path desc="l 1 p 8" fill="rgb(254,254,254)" stroke="rgb(254,254,254)" stroke-width="1" opacity="1.0" d="M 369.5 243.0 Q 376.8 241.8 379.0 245.5 L 380.0 252.5 L 376.5 258.0 L 369.0 257.5 L 369.5 243.0 Z" /><path desc="l 0 p 2" fill="rgb(1,1,1)" stroke="rgb(1,1,1)" stroke-width="1" opacity="0.9882352941176471" d="M 60.5 245.0 Q 68.3 243.3 70.0 247.5 L 71.0 253.5 L 67.5 258.0 L 60.0 257.5 L 60.5 245.0 Z" /><path desc="l 0 p 3" fill="rgb(1,1,1)" stroke="rgb(1,1,1)" stroke-width="1" opacity="0.9882352941176471" d="M 290.5 250.0 L 294.0 262.5 L 286.5 263.0 L 286.0 261.5 L 290.5 250.0 Z" /><path desc="l 1 p 9" fill="rgb(254,254,254)" stroke="rgb(254,254,254)" stroke-width="1" opacity="1.0" d="M 369.5 266.0 Q 378.0 264.0 380.0 268.5 L 381.0 276.5 L 378.5 281.0 L 369.0 280.5 L 369.5 266.0 Z" /><path desc="l 0 p 4" fill="rgb(1,1,1)" stroke="rgb(1,1,1)" stroke-width="1" opacity="0.9882352941176471" d="M 407.5 293.0 L 416.5 303.0 L 427.0 307.5 L 407.5 347.0 L 388.0 306.5 L 395.5 304.0 L 406.0 295.5 L 407.5 293.0 Z" /><path desc="l 1 p 10" fill="rgb(254,254,254)" stroke="rgb(254,254,254)" stroke-width="1" opacity="1.0" d="M 28.5 296.0 L 330.0 296.5 L 329.5 301.0 L 28.0 300.5 L 28.5 296.0 Z" /></svg>