<svg width="512" height="512" version="1.1" xmlns="http://www.w3.org/2000/svg" desc="Created with ImageTracer.java version 1.1.2" ><path desc="l 0 p 0" fill="rgb(241,242,243)" stroke="rgb(241,242,243)" stroke-width="1" opacity="0.9882352941176471" d="M 0.5 0.0 L 512.0 0.5 L 511.5 512.0 L 0.0 511.5 L 0.5 0.0 Z" /><path desc="l 1 p 0" fill="rgb(89,67,120)" stroke="rgb(89,67,120)" stroke-width="1" opacity="1.0" d="M 270.5 23.0 L 297.5 24.0 L 310.0 26.5 L 316.5 27.0 L 334.5 33.0 L 343.5 36.0 L 362.0 46.5 L 360.5 47.0 Q 352.1 40.4 340.0 37.5 L 320.5 32.0 L 311.5 30.0 Q 307.7 27.3 299.5 29.0 L 269.5 29.0 L 250.0 33.5 L 231.0 39.5 L 222.0 43.5 L 215.5 47.0 L 210.5 49.0 L 204.5 53.0 L 192.5 62.0 L 175.0 78.5 L 174.5 80.0 L 173.0 80.5 L 172.5 82.0 L 171.0 82.5 L 165.5 90.0 L 164.0 90.5 L 158.0 101.5 L 152.5 112.0 L 145.0 129.5 Q 145.7 135.2 143.0 137.5 L 140.5 148.0 L 140.0 156.5 L 139.0 179.5 Q 141.8 181.3 140.0 187.5 L 141.0 197.5 L 144.0 210.5 L 150.0 227.5 L 154.0 236.5 L 149.5 242.0 L 148.0 242.5 L 147.5 244.0 L 141.5 247.0 L 136.0 237.5 L 133.0 229.5 L 127.0 206.5 L 125.5 198.0 L 125.0 188.5 L 125.0 160.5 L 128.0 145.5 L 130.0 137.5 L 134.0 125.5 L 139.0 113.5 L 150.5 92.0 L 152.0 91.5 L 157.5 82.0 L 159.0 81.5 L 165.5 73.0 Q 181.3 55.3 203.0 43.5 L 210.5 39.0 L 217.0 36.5 L 221.5 35.0 L 226.0 32.5 L 237.5 29.0 L 245.5 27.0 L 258.5 25.0 L 262.5 24.0 Q 268.8 25.8 270.5 23.0 Z" /><path desc="l 1 p 1" fill="rgb(89,67,120)" stroke="rgb(89,67,120)" stroke-width="1" opacity="1.0" d="M 288.5 38.0 L 291.0 38.5 L 291.0 47.5 Q 290.3 51.3 292.5 52.0 L 299.5 43.0 L 301.0 43.5 L 301.0 54.5 Q 300.3 59.3 302.5 61.0 Q 317.7 62.3 324.0 72.5 Q 327.8 77.8 334.5 80.0 L 340.5 81.0 Q 352.6 78.9 357.0 84.5 L 358.0 87.5 L 353.5 98.0 L 350.0 99.5 L 351.0 105.5 Q 347.0 112.5 337.0 113.5 L 327.5 115.0 L 319.0 118.5 Q 315.7 122.2 317.0 130.5 L 314.0 146.5 L 313.0 152.5 L 312.0 162.5 L 312.0 184.5 L 312.0 206.5 Q 313.0 216.1 309.0 220.5 L 307.0 225.5 L 305.0 234.5 L 303.0 242.5 Q 302.3 248.8 298.0 251.5 Q 294.2 254.7 295.0 262.5 L 294.5 275.0 Q 286.5 256.5 273.5 243.0 L 259.0 232.5 L 256.0 225.5 L 255.0 218.5 Q 258.4 215.9 257.0 208.5 L 257.5 201.0 L 259.0 194.5 L 260.5 187.0 L 261.0 169.5 L 257.5 168.0 L 250.0 174.5 L 245.5 180.0 L 239.5 183.0 L 236.5 182.0 L 230.5 182.0 Q 222.1 182.9 219.0 178.5 L 207.5 163.0 L 206.0 163.5 L 203.5 178.0 L 203.0 200.5 L 207.0 215.5 Q 211.7 219.3 210.0 229.5 L 205.0 241.5 L 201.0 249.5 L 200.0 257.5 Q 202.5 259.0 201.0 264.5 L 205.0 277.5 L 206.0 280.5 Q 208.3 283.7 207.0 290.5 Q 199.1 299.6 200.0 317.5 L 202.0 323.5 Q 202.6 330.4 206.5 334.0 L 208.0 333.5 L 211.5 314.0 L 212.0 325.5 L 209.0 339.5 Q 209.0 346.0 205.5 349.0 L 201.0 351.5 Q 198.4 352.9 199.0 357.5 Q 200.0 360.0 204.5 359.0 L 219.5 359.0 Q 222.7 356.7 222.0 350.5 Q 221.0 346.0 223.5 345.0 L 225.5 346.0 L 228.5 337.0 L 231.5 325.0 L 232.0 329.5 L 228.5 347.0 Q 228.8 352.3 226.0 354.5 Q 222.3 355.3 223.0 360.5 Q 225.0 363.5 230.5 363.0 L 239.0 363.5 Q 236.0 366.5 228.5 365.0 L 222.0 362.5 L 218.5 361.0 L 211.5 361.0 Q 200.6 362.9 196.5 358.0 L 190.0 357.5 L 169.5 357.0 L 153.5 357.0 Q 148.8 358.3 147.5 356.0 L 140.0 350.5 L 131.5 337.0 L 116.0 336.5 L 104.0 333.5 L 92.0 325.5 L 88.0 317.5 Q 85.0 314.5 86.0 307.5 L 86.0 288.5 L 94.5 273.0 L 106.5 265.0 L 116.0 262.5 L 127.5 262.0 L 145.5 266.0 L 189.0 214.5 L 197.5 202.0 Q 202.8 197.3 201.0 185.5 Q 199.9 169.4 206.5 161.0 L 213.0 165.5 L 217.5 172.0 L 221.0 169.5 L 237.5 140.0 L 246.0 121.5 L 248.0 111.5 L 257.0 89.5 L 266.0 75.5 L 279.0 55.5 L 288.5 38.0 Z" /><path desc="l 1 p 2" fill="rgb(89,67,120)" stroke="rgb(89,67,120)" stroke-width="1" opacity="1.0" d="M 363.5 47.0 L 367.0 49.5 L 365.5 49.0 L 363.5 47.0 Z" /><path desc="l 1 p 3" fill="rgb(89,67,120)" stroke="rgb(89,67,120)" stroke-width="1" opacity="1.0" d="M 400.5 52.0 Q 405.9 57.1 407.0 66.5 L 408.0 70.5 L 412.5 77.0 L 414.0 76.5 Q 412.6 68.2 415.5 64.0 L 427.5 67.0 L 442.0 69.5 L 446.5 71.0 L 455.0 75.5 Q 464.3 83.2 467.0 97.5 L 472.0 114.5 Q 475.7 117.3 475.0 124.5 Q 473.7 128.7 467.5 128.0 Q 465.8 125.3 459.5 127.0 Q 452.1 127.9 448.5 125.0 L 431.5 121.0 L 429.5 121.0 L 426.0 119.5 L 429.0 117.5 L 427.5 114.0 L 426.0 113.5 L 425.5 112.0 L 424.0 111.5 L 423.5 110.0 L 422.0 109.5 L 418.5 105.0 L 408.5 102.0 L 399.0 97.5 L 403.5 96.0 L 409.0 93.5 L 408.0 90.5 L 403.5 86.0 L 393.5 83.0 Q 382.5 82.5 377.0 76.5 L 382.5 76.0 L 388.0 74.5 L 397.0 66.5 Q 400.9 61.4 400.5 52.0 Z" /><path desc="l 1 p 4" fill="rgb(89,67,120)" stroke="rgb(89,67,120)" stroke-width="1" opacity="1.0" d="M 203.5 73.0 Q 213.3 72.3 216.0 78.5 Q 216.8 84.3 212.5 85.0 Q 209.5 88.0 203.5 88.0 L 196.5 89.0 L 188.5 91.0 L 181.5 94.0 L 172.5 102.0 L 172.0 100.5 L 186.5 84.0 L 188.0 83.5 L 190.5 80.0 L 203.5 73.0 Z" /><path desc="l 0 p 1" fill="rgb(241,242,243)" stroke="rgb(241,242,243)" stroke-width="1" opacity="0.9882352941176471" d="M 321.5 104.0 L 331.5 104.0 L 335.5 105.0 L 339.5 104.0 L 340.0 105.5 L 332.5 109.0 L 326.0 111.5 L 320.5 112.0 Q 317.8 110.8 319.0 105.5 L 321.5 104.0 Z" /><path desc="l 1 p 5" fill="rgb(89,67,120)" stroke="rgb(89,67,120)" stroke-width="1" opacity="1.0" d="M 382.5 113.0 L 383.5 127.0 L 388.5 123.0 Q 399.7 128.8 407.0 138.5 L 408.0 149.5 L 407.0 152.5 L 407.0 160.5 Q 408.0 167.0 404.5 169.0 Q 400.0 170.0 399.0 167.5 L 394.5 164.0 L 380.0 154.5 L 382.0 153.5 L 381.0 147.5 Q 381.5 142.5 377.5 142.0 L 372.0 137.5 L 372.5 136.0 L 378.0 135.5 L 377.0 132.5 L 373.5 128.0 L 367.0 124.5 L 365.0 120.5 L 366.5 120.0 L 370.5 121.0 L 372.5 120.0 L 374.5 121.0 L 382.0 114.5 L 382.5 113.0 Z" /><path desc="l 1 p 6" fill="rgb(89,67,120)" stroke="rgb(89,67,120)" stroke-width="1" opacity="1.0" d="M 171.5 126.0 L 180.5 126.0 L 184.5 127.0 L 188.0 130.5 Q 189.1 138.1 185.5 141.0 L 179.0 152.5 L 165.5 167.0 L 164.0 167.5 L 159.0 177.5 L 157.0 180.5 L 155.0 189.5 L 154.0 196.5 Q 155.0 201.0 152.5 202.0 L 151.5 196.0 L 151.0 185.5 L 151.0 179.5 L 150.0 176.5 Q 152.3 175.3 151.0 170.5 L 152.0 158.5 Q 155.5 138.5 168.5 128.0 L 171.5 126.0 Z" /><path desc="l 1 p 7" fill="rgb(89,67,120)" stroke="rgb(89,67,120)" stroke-width="1" opacity="1.0" d="M 437.5 143.0 L 438.0 147.5 Q 435.2 149.2 436.0 154.5 L 437.5 154.0 L 441.5 152.0 L 446.5 159.0 L 452.0 166.5 L 453.0 173.5 L 448.5 185.0 L 444.5 194.0 L 440.0 191.5 L 434.0 185.5 L 429.5 179.0 L 427.0 177.5 L 427.5 176.0 L 429.0 175.5 L 428.0 166.5 L 424.0 160.5 L 425.5 160.0 L 428.5 161.0 L 429.0 156.5 L 424.0 150.5 L 422.0 145.5 L 424.5 147.0 Q 433.9 148.9 437.0 144.5 L 437.5 143.0 Z" /><path desc="l 1 p 8" fill="rgb(89,67,120)" stroke="rgb(89,67,120)" stroke-width="1" opacity="1.0" d="M 346.5 160.0 L 354.5 162.0 L 357.5 164.0 L 365.0 171.5 L 368.0 176.5 L 374.0 182.5 Q 379.4 185.6 378.0 195.5 L 378.0 217.5 L 373.5 224.0 L 367.0 228.5 L 366.0 230.5 L 367.5 233.0 Q 382.3 227.3 392.0 216.5 L 400.5 204.0 L 401.0 205.5 Q 396.2 218.7 388.0 228.5 L 394.5 229.0 Q 396.3 226.3 402.5 228.0 L 426.5 228.0 L 436.5 230.0 Q 438.2 227.2 443.5 228.0 L 453.0 232.5 L 469.0 243.5 L 458.5 244.0 L 445.5 241.0 Q 438.0 240.5 435.0 235.5 L 433.5 233.0 L 423.5 232.0 L 406.5 232.0 L 391.5 235.0 L 371.0 242.5 Q 370.4 249.1 373.5 252.0 L 379.0 261.5 L 376.5 262.0 L 367.5 257.0 L 367.0 265.5 Q 369.6 268.4 369.0 274.5 L 363.0 277.5 L 362.0 281.5 L 360.5 285.0 L 359.0 284.5 L 358.0 271.5 Q 355.3 269.2 356.0 263.5 L 353.5 246.0 L 344.5 245.0 L 333.5 244.0 L 325.0 242.5 L 342.0 240.5 L 346.5 240.0 Q 350.3 240.8 351.0 238.5 Q 352.3 231.3 347.5 230.0 Q 340.4 229.1 338.0 223.5 L 334.0 205.5 L 333.0 199.5 L 333.0 186.5 L 335.0 183.5 L 336.0 178.5 L 332.5 176.0 L 328.0 174.5 L 329.5 172.0 L 332.0 170.5 L 337.5 163.0 L 346.5 160.0 Z" /><path desc="l 1 p 9" fill="rgb(89,67,120)" stroke="rgb(89,67,120)" stroke-width="1" opacity="1.0" d="M 218.5 198.0 L 224.0 199.5 L 226.0 204.5 Q 224.6 207.6 219.5 207.0 Q 215.0 206.0 216.0 199.5 L 218.5 198.0 Z" /><path desc="l 1 p 10" fill="rgb(89,67,120)" stroke="rgb(89,67,120)" stroke-width="1" opacity="1.0" d="M 241.5 198.0 L 247.0 199.5 Q 248.3 205.8 244.5 207.0 Q 239.8 207.8 238.0 205.5 Q 237.3 199.3 241.5 198.0 Z" /><path desc="l 1 p 11" fill="rgb(89,67,120)" stroke="rgb(89,67,120)" stroke-width="1" opacity="1.0" d="M 114.5 208.0 L 118.0 210.5 L 120.0 217.5 L 119.0 222.5 L 119.0 234.5 L 122.0 239.5 L 120.5 240.0 L 112.0 226.5 L 110.0 222.5 L 109.0 214.5 L 112.5 209.0 L 114.5 208.0 Z" /><path desc="l 1 p 12" fill="rgb(89,67,120)" stroke="rgb(89,67,120)" stroke-width="1" opacity="1.0" d="M 436.5 212.0 Q 443.3 211.3 447.0 213.5 L 442.5 217.0 L 433.5 222.0 L 422.5 226.0 L 419.0 220.5 L 422.5 215.0 L 436.5 212.0 Z" /><path desc="l 1 p 13" fill="rgb(89,67,120)" stroke="rgb(89,67,120)" stroke-width="1" opacity="1.0" d="M 228.5 214.0 L 236.0 214.5 L 233.0 220.5 L 235.0 223.5 L 233.5 223.0 L 227.5 224.0 L 230.0 220.5 L 227.0 215.5 L 228.5 214.0 Z" /><path desc="l 1 p 14" fill="rgb(89,67,120)" stroke="rgb(89,67,120)" stroke-width="1" opacity="1.0" d="M 451.5 220.0 Q 461.8 219.8 467.0 224.5 L 462.5 226.0 Q 461.3 223.8 456.5 225.0 L 454.5 226.0 L 450.0 224.5 L 451.5 220.0 Z" /><path desc="l 1 p 15" fill="rgb(89,67,120)" stroke="rgb(89,67,120)" stroke-width="1" opacity="1.0" d="M 418.5 235.0 Q 423.3 235.3 425.0 238.5 L 433.0 246.5 L 440.0 258.5 L 437.5 259.0 L 423.5 251.0 L 415.0 244.5 L 413.0 239.5 L 418.5 235.0 Z" /><path desc="l 1 p 16" fill="rgb(89,67,120)" stroke="rgb(89,67,120)" stroke-width="1" opacity="1.0" d="M 448.5 249.0 L 455.0 253.5 L 458.0 258.5 L 456.5 259.0 L 448.0 253.5 L 448.5 249.0 Z" /><path desc="l 0 p 2" fill="rgb(241,242,243)" stroke="rgb(241,242,243)" stroke-width="1" opacity="0.9882352941176471" d="M 122.5 285.0 Q 130.1 283.9 132.0 288.5 L 129.0 296.5 L 122.5 308.0 Q 116.1 307.9 114.0 303.5 L 113.0 294.5 L 119.5 286.0 L 122.5 285.0 Z" /><path desc="l 1 p 17" fill="rgb(89,67,120)" stroke="rgb(89,67,120)" stroke-width="1" opacity="1.0" d="M 315.5 291.0 L 321.5 294.0 Q 325.5 297.5 334.5 296.0 L 341.5 293.0 Q 342.5 290.0 347.5 291.0 L 348.0 295.5 L 349.5 299.0 Q 354.3 297.8 355.5 300.0 L 358.5 301.0 L 362.5 303.0 Q 371.3 306.7 376.0 314.5 L 380.0 322.5 Q 382.9 327.1 382.0 335.5 L 381.0 339.5 L 377.5 344.0 Q 374.2 346.7 367.5 346.0 L 358.0 347.5 Q 353.8 351.8 343.5 350.0 Q 340.5 348.5 343.5 347.0 L 351.0 346.5 Q 352.3 340.3 348.5 339.0 Q 343.0 339.5 341.0 336.5 L 334.5 334.0 L 327.5 339.0 L 326.0 336.5 L 329.0 329.5 L 323.0 322.5 Q 317.4 320.1 319.0 310.5 Q 320.4 303.1 317.0 300.5 Q 313.4 297.7 315.5 291.0 Z" /><path desc="l 1 p 18" fill="rgb(89,67,120)" stroke="rgb(89,67,120)" stroke-width="1" opacity="1.0" d="M 250.5 329.0 L 251.0 331.5 Q 248.2 334.2 249.0 340.5 L 245.0 356.5 Q 245.8 358.8 249.5 358.0 L 258.5 358.0 L 263.5 351.0 L 267.5 350.0 L 267.5 351.0 L 264.0 352.5 L 262.0 358.5 Q 263.3 362.3 269.5 361.0 L 284.5 361.0 Q 286.0 358.5 291.5 360.0 Q 297.9 359.9 300.0 355.5 Q 303.4 349.4 303.5 340.0 Q 309.0 338.5 310.5 341.0 L 318.0 347.5 L 319.0 355.5 Q 317.3 360.8 308.5 359.0 Q 298.9 357.9 294.0 361.5 L 287.0 362.5 L 265.5 363.0 L 262.5 361.0 Q 261.3 358.8 256.5 360.0 L 242.0 359.5 L 250.5 329.0 Z" /></svg>