<svg width="512" height="512" version="1.1" xmlns="http://www.w3.org/2000/svg" desc="Created with ImageTracer.java version 1.1.2" ><path desc="l 0 p 0" fill="rgb(250,247,248)" stroke="rgb(250,247,248)" stroke-width="1" opacity="0.9882352941176471" d="M 0.5 0.0 L 512.0 0.5 L 511.5 512.0 L 0.0 511.5 L 0.5 0.0 Z" /><path desc="l 1 p 0" fill="rgb(81,90,129)" stroke="rgb(81,90,129)" stroke-width="1" opacity="1.0" d="M 268.5 23.0 L 292.0 23.5 L 301.5 25.0 L 309.5 26.0 L 314.5 27.0 L 321.5 28.0 Q 322.9 30.6 327.5 30.0 L 345.5 37.0 Q 357.9 41.6 367.0 49.5 L 365.5 49.0 L 337.0 36.5 L 322.5 32.0 L 311.5 30.0 Q 307.7 27.3 299.5 29.0 L 269.5 29.0 L 253.5 33.0 L 240.5 36.0 L 222.0 43.5 L 209.0 50.5 Q 194.5 58.0 184.0 69.5 L 183.5 71.0 L 176.0 77.5 Q 163.8 88.8 156.5 105.0 L 155.0 105.5 L 148.5 121.0 L 144.5 134.0 L 141.0 146.5 L 140.0 159.5 L 139.0 178.5 Q 141.8 180.3 140.0 186.5 L 140.5 194.0 L 142.0 201.5 L 145.0 214.5 L 154.0 236.5 L 147.5 244.0 L 146.0 244.5 L 145.5 246.0 L 141.5 247.0 L 136.0 237.5 L 131.5 225.0 L 126.5 204.0 Q 123.9 198.1 125.0 188.5 L 125.0 158.5 L 128.0 145.5 L 132.0 129.5 Q 136.5 113.5 145.0 101.5 L 148.0 95.5 L 152.0 90.5 Q 157.8 79.8 166.5 72.0 L 168.0 71.5 L 174.5 64.0 Q 188.8 50.3 207.5 41.0 L 216.0 36.5 L 222.5 34.0 L 248.5 26.0 L 263.5 24.0 L 268.5 23.0 Z" /><path desc="l 1 p 1" fill="rgb(81,90,129)" stroke="rgb(81,90,129)" stroke-width="1" opacity="1.0" d="M 289.5 37.0 Q 292.3 38.3 291.0 43.5 Q 289.3 50.3 292.5 52.0 L 299.5 43.0 L 301.0 43.5 L 301.0 54.5 Q 300.0 60.0 303.5 61.0 Q 318.4 62.6 324.5 73.0 Q 328.3 78.7 336.5 80.0 L 342.5 81.0 Q 352.4 79.6 357.0 83.5 L 358.0 87.5 L 353.5 98.0 L 350.0 99.5 L 350.5 102.0 L 352.0 102.5 L 346.5 110.0 L 337.0 113.5 L 329.5 114.0 L 323.5 116.0 L 318.0 120.5 L 314.0 147.5 L 312.5 156.0 L 312.0 163.5 L 312.0 184.5 L 312.0 206.5 Q 313.0 216.1 309.0 220.5 L 307.0 225.5 L 305.0 234.5 L 303.0 244.5 L 298.0 251.5 Q 294.2 254.7 295.0 262.5 L 294.5 275.0 Q 285.9 254.6 270.5 241.0 L 258.0 231.5 L 256.0 226.5 L 255.0 218.5 Q 258.4 215.9 257.0 208.5 L 257.5 200.0 L 259.0 193.5 Q 262.9 184.4 261.0 169.5 L 257.5 168.0 L 252.0 172.5 L 244.5 181.0 Q 241.2 183.7 234.5 183.0 L 229.5 182.0 Q 224.8 183.3 223.5 181.0 L 218.0 177.5 L 207.5 163.0 Q 204.5 163.5 205.0 167.5 L 204.0 174.5 L 203.5 179.0 L 203.0 199.5 L 207.0 215.5 Q 210.5 219.0 211.0 225.5 L 204.5 242.0 L 201.0 249.5 L 200.0 256.5 L 204.0 275.5 L 208.0 288.5 L 202.0 301.5 L 200.5 308.0 L 200.0 317.5 Q 201.6 327.4 206.5 334.0 L 208.0 333.5 L 211.5 313.0 L 212.0 325.5 L 211.0 329.5 L 210.0 338.5 L 205.5 349.0 L 200.0 353.5 L 199.0 357.5 Q 200.0 360.0 204.5 359.0 L 219.5 359.0 Q 222.7 356.7 222.0 350.5 Q 221.0 346.0 223.5 345.0 L 225.5 346.0 L 228.5 337.0 L 232.5 321.0 L 233.0 324.5 L 229.0 345.5 L 228.0 349.5 Q 228.8 354.3 225.5 355.0 Q 222.3 355.8 223.0 360.5 Q 225.0 363.5 230.5 363.0 L 239.0 363.5 L 235.5 365.0 L 227.5 365.0 L 222.0 362.5 L 218.5 361.0 L 211.5 361.0 Q 203.3 362.7 199.5 360.0 Q 198.8 357.3 194.5 358.0 L 161.5 357.0 Q 147.7 359.3 142.0 353.5 L 130.5 337.0 Q 103.8 338.8 92.0 325.5 Q 85.9 319.6 86.0 307.5 L 86.0 288.5 L 91.0 278.5 Q 92.4 272.4 97.5 270.0 Q 107.2 260.2 128.5 262.0 L 144.5 266.0 L 153.0 258.5 L 186.0 217.5 L 198.0 200.5 Q 202.9 196.4 201.0 185.5 Q 199.8 177.3 202.0 172.5 L 204.0 164.5 L 206.5 161.0 L 214.0 166.5 L 217.5 172.0 L 221.0 169.5 L 235.0 144.5 L 244.0 126.5 L 248.0 111.5 Q 254.4 89.9 267.0 74.5 L 289.5 37.0 Z" /><path desc="l 1 p 2" fill="rgb(81,90,129)" stroke="rgb(81,90,129)" stroke-width="1" opacity="1.0" d="M 400.5 52.0 Q 405.6 56.9 407.0 65.5 Q 407.7 73.3 412.5 77.0 L 414.0 76.5 L 414.0 69.5 L 415.0 66.5 Q 412.8 65.3 415.5 64.0 L 440.5 69.0 Q 453.2 70.8 459.0 79.5 Q 465.2 84.8 466.0 95.5 L 473.0 114.5 L 474.0 117.5 L 475.0 125.5 Q 472.1 129.1 464.5 128.0 Q 463.3 125.8 458.5 127.0 L 453.0 126.5 L 445.0 124.5 Q 441.9 122.1 435.5 123.0 L 426.0 119.5 L 429.0 117.5 L 418.5 105.0 Q 406.6 103.4 399.0 97.5 L 399.5 96.0 Q 406.8 97.3 409.0 93.5 L 408.0 90.5 L 403.5 86.0 L 392.5 83.0 Q 382.3 82.2 377.0 76.5 Q 385.8 77.3 389.5 73.0 L 396.0 67.5 Q 401.0 62.5 400.5 52.0 Z" /><path desc="l 1 p 3" fill="rgb(81,90,129)" stroke="rgb(81,90,129)" stroke-width="1" opacity="1.0" d="M 203.5 73.0 Q 212.2 71.8 215.0 76.5 L 216.0 81.5 Q 213.0 86.5 206.5 88.0 L 196.5 89.0 Q 180.4 91.4 172.5 102.0 L 172.0 100.5 Q 180.0 88.0 191.5 79.0 L 203.5 73.0 Z" /><path desc="l 0 p 1" fill="rgb(250,247,248)" stroke="rgb(250,247,248)" stroke-width="1" opacity="0.9882352941176471" d="M 322.5 104.0 L 335.5 105.0 L 339.5 104.0 L 338.5 106.0 L 330.5 110.0 L 320.5 112.0 Q 317.8 110.8 319.0 105.5 L 322.5 104.0 Z" /><path desc="l 1 p 4" fill="rgb(81,90,129)" stroke="rgb(81,90,129)" stroke-width="1" opacity="1.0" d="M 382.5 113.0 L 383.5 127.0 L 388.5 123.0 Q 399.0 128.0 406.0 136.5 Q 409.8 141.2 408.0 151.5 L 407.0 154.5 L 407.0 160.5 Q 407.8 166.3 405.5 169.0 Q 400.8 170.3 399.5 168.0 L 394.0 164.5 L 380.0 154.5 L 382.0 153.5 L 381.0 147.5 Q 381.5 143.5 378.5 143.0 L 372.0 138.5 L 372.5 136.0 L 378.0 135.5 Q 376.6 129.4 371.5 127.0 L 367.0 124.5 L 365.0 119.5 L 367.5 121.0 L 373.5 120.0 Q 379.9 119.3 382.0 114.5 L 382.5 113.0 Z" /><path desc="l 1 p 5" fill="rgb(81,90,129)" stroke="rgb(81,90,129)" stroke-width="1" opacity="1.0" d="M 171.5 126.0 L 180.5 126.0 Q 185.6 125.4 187.0 128.5 L 188.0 136.5 Q 181.6 152.6 169.0 162.5 Q 158.3 172.3 155.0 189.5 L 154.0 196.5 Q 154.8 201.3 152.5 203.0 L 150.5 185.0 L 150.0 171.5 L 151.0 166.5 L 152.0 157.5 Q 156.0 137.5 169.5 127.0 L 171.5 126.0 Z" /><path desc="l 1 p 6" fill="rgb(81,90,129)" stroke="rgb(81,90,129)" stroke-width="1" opacity="1.0" d="M 437.5 143.0 L 439.0 143.5 L 437.0 148.5 L 436.0 154.5 L 438.5 153.0 L 441.5 152.0 L 448.5 161.0 Q 453.8 164.7 453.0 174.5 L 448.0 186.5 L 447.0 189.5 Q 447.5 193.5 444.5 194.0 L 440.0 191.5 L 434.0 185.5 L 430.5 180.0 L 427.0 177.5 L 427.5 176.0 L 429.0 175.5 L 428.0 166.5 L 424.0 160.5 L 425.5 160.0 L 428.5 161.0 L 429.0 156.5 L 424.0 150.5 L 422.0 145.5 L 424.5 147.0 Q 434.8 148.8 437.5 143.0 Z" /><path desc="l 1 p 7" fill="rgb(81,90,129)" stroke="rgb(81,90,129)" stroke-width="1" opacity="1.0" d="M 345.5 160.0 Q 356.4 160.1 361.0 166.5 L 373.5 182.0 Q 379.4 185.1 378.0 195.5 L 378.0 217.5 L 373.5 224.0 L 367.0 228.5 L 367.5 232.0 L 371.5 231.0 L 375.0 229.5 L 392.0 216.5 L 400.5 204.0 L 401.0 205.5 Q 396.2 218.7 388.0 228.5 L 394.5 229.0 L 397.5 228.0 L 403.5 228.0 L 427.5 228.0 L 435.5 230.0 Q 438.2 227.2 444.5 228.0 Q 458.7 233.8 469.0 243.5 L 456.5 244.0 L 445.5 241.0 Q 438.0 241.0 435.0 236.5 L 432.5 233.0 L 423.5 232.0 L 406.5 232.0 L 381.5 238.0 L 377.0 240.5 L 371.0 242.5 Q 370.3 248.2 373.0 250.5 L 379.0 261.5 L 376.5 262.0 L 367.5 257.0 L 367.0 265.5 Q 369.8 268.2 369.0 274.5 L 364.0 276.5 L 360.5 285.0 L 359.0 284.5 L 358.0 272.5 L 356.0 264.5 L 355.0 257.5 L 354.0 251.5 Q 355.0 247.0 352.5 246.0 L 333.5 244.0 L 325.0 242.5 L 341.5 241.0 L 346.5 240.0 Q 350.3 240.8 351.0 238.5 Q 352.3 231.3 347.5 230.0 L 340.0 226.5 Q 336.3 222.7 336.0 215.5 L 334.0 206.5 L 333.0 199.5 L 333.0 186.5 Q 336.6 184.6 336.0 178.5 L 332.5 176.0 L 328.0 174.5 L 330.5 171.0 L 332.0 170.5 L 337.5 163.0 L 345.5 160.0 Z" /><path desc="l 1 p 8" fill="rgb(81,90,129)" stroke="rgb(81,90,129)" stroke-width="1" opacity="1.0" d="M 218.5 198.0 Q 224.0 197.0 225.0 200.5 L 226.0 204.5 Q 224.6 207.6 219.5 207.0 L 217.0 205.5 L 216.0 199.5 L 218.5 198.0 Z" /><path desc="l 1 p 9" fill="rgb(81,90,129)" stroke="rgb(81,90,129)" stroke-width="1" opacity="1.0" d="M 241.5 198.0 L 247.0 199.5 L 248.0 201.5 L 244.5 207.0 Q 239.8 207.8 238.0 205.5 Q 237.0 199.0 241.5 198.0 Z" /><path desc="l 1 p 10" fill="rgb(81,90,129)" stroke="rgb(81,90,129)" stroke-width="1" opacity="1.0" d="M 114.5 208.0 L 119.0 211.5 L 120.0 218.5 L 119.0 222.5 L 119.0 233.5 L 122.0 240.5 L 119.0 238.5 L 111.5 226.0 Q 108.2 221.8 109.0 213.5 L 112.5 209.0 L 114.5 208.0 Z" /><path desc="l 1 p 11" fill="rgb(81,90,129)" stroke="rgb(81,90,129)" stroke-width="1" opacity="1.0" d="M 433.5 212.0 L 441.5 212.0 L 447.0 213.5 L 441.5 218.0 L 433.5 222.0 L 422.5 226.0 Q 419.3 224.3 419.0 219.5 L 422.5 215.0 L 433.5 212.0 Z" /><path desc="l 1 p 12" fill="rgb(81,90,129)" stroke="rgb(81,90,129)" stroke-width="1" opacity="1.0" d="M 227.5 214.0 L 236.0 214.5 L 233.0 220.5 L 235.5 224.0 L 229.5 223.0 L 227.5 224.0 L 227.0 222.5 L 230.0 220.5 L 228.0 217.5 L 227.5 214.0 Z" /><path desc="l 1 p 13" fill="rgb(81,90,129)" stroke="rgb(81,90,129)" stroke-width="1" opacity="1.0" d="M 451.5 220.0 Q 461.8 219.8 467.0 224.5 Q 466.3 226.8 462.5 226.0 L 453.5 226.0 L 450.0 224.5 Q 449.3 220.8 451.5 220.0 Z" /><path desc="l 1 p 14" fill="rgb(81,90,129)" stroke="rgb(81,90,129)" stroke-width="1" opacity="1.0" d="M 417.5 235.0 Q 423.3 234.2 425.0 237.5 L 425.5 239.0 L 430.0 242.5 L 440.0 258.5 L 437.5 259.0 Q 423.4 253.6 414.0 243.5 L 413.0 239.5 L 414.5 237.0 L 417.5 235.0 Z" /><path desc="l 1 p 15" fill="rgb(81,90,129)" stroke="rgb(81,90,129)" stroke-width="1" opacity="1.0" d="M 448.5 249.0 L 456.0 254.5 L 458.0 258.5 L 455.5 259.0 L 448.0 253.5 L 447.0 250.5 L 448.5 249.0 Z" /><path desc="l 0 p 2" fill="rgb(250,247,248)" stroke="rgb(250,247,248)" stroke-width="1" opacity="0.9882352941176471" d="M 122.5 285.0 Q 130.1 283.9 132.0 288.5 L 122.5 308.0 Q 116.1 307.9 114.0 303.5 L 113.0 295.5 L 118.5 287.0 L 122.5 285.0 Z" /><path desc="l 1 p 16" fill="rgb(81,90,129)" stroke="rgb(81,90,129)" stroke-width="1" opacity="1.0" d="M 345.5 290.0 L 348.0 291.5 Q 346.5 297.5 349.5 299.0 Q 355.8 298.2 358.5 301.0 Q 364.8 301.8 367.5 306.0 L 377.0 315.5 Q 382.3 322.7 382.0 335.5 L 381.0 338.5 L 380.0 341.5 L 376.5 345.0 L 367.5 346.0 Q 361.2 345.2 358.5 348.0 L 345.5 351.0 L 342.0 348.5 L 342.5 347.0 L 351.0 346.5 Q 352.3 340.3 348.5 339.0 Q 343.0 339.5 341.0 336.5 L 334.5 334.0 L 326.5 339.0 L 326.0 335.5 L 329.0 330.5 L 323.5 324.0 Q 317.8 321.2 319.0 311.5 Q 320.0 304.5 317.5 301.0 Q 313.8 298.8 315.0 291.5 L 317.5 291.0 L 323.5 295.0 L 334.5 296.0 L 345.5 290.0 Z" /><path desc="l 1 p 17" fill="rgb(81,90,129)" stroke="rgb(81,90,129)" stroke-width="1" opacity="1.0" d="M 251.5 325.0 L 252.0 327.5 L 251.0 327.5 L 251.5 325.0 Z" /><path desc="l 1 p 18" fill="rgb(81,90,129)" stroke="rgb(81,90,129)" stroke-width="1" opacity="1.0" d="M 250.5 329.0 L 251.0 332.5 Q 248.2 335.2 249.0 341.5 L 245.0 356.5 Q 245.8 358.8 249.5 358.0 L 258.5 358.0 L 263.5 351.0 L 267.5 350.0 L 267.5 351.0 L 264.0 352.5 L 262.0 358.5 Q 263.0 362.0 268.5 361.0 L 283.5 361.0 L 288.5 360.0 Q 297.4 360.9 300.0 355.5 L 303.5 340.0 Q 309.0 338.5 310.5 341.0 L 318.0 347.5 L 319.0 355.5 L 317.5 358.0 Q 314.0 360.5 306.5 359.0 Q 298.6 358.1 295.0 361.5 L 288.0 362.5 L 277.5 363.0 L 271.5 363.0 L 268.5 364.0 L 263.0 361.5 Q 261.8 358.8 256.5 360.0 L 242.0 359.5 L 250.5 329.0 Z" /></svg>